# xmcd
#
# Track frame offsets: 
#        182
#        19350
#        48512
#        71100
#        96375
#        120237
#        139062
#        167662
#        187462
#
# Disc length: 2953 seconds
#
# Revision: 4
# Processed by: cddbd v1.5.2PL0 Copyright (c) Steve Scherf et al.
# Submitted via: ExactAudioCopy v1.0b6
#
DISCID=860b8709
DTITLE=Howlin' Wolf - Live in Europe (Bremen 06.11.1964)
DYEAR=1964
DGENRE=Blues
TTITLE0=Shake It For Me
TTITLE1=Love Me
TTITLE2=Dust My Broom
TTITLE3=I Didn't Mean To Hurt Your Feelings
TTITLE4=Rockin' The Blues
TTITLE5=All My Life
TTITLE6=Goin' Down Slow
TTITLE7=Howlin' For My Darlin'
TTITLE8=Forty Four
EXTD=Howlin' Wolf a.k.a. Chester Arthur Burnett\nThis album a.k.a. The
EXTD=Collection
EXTT0=
EXTT1=
EXTT2=
EXTT3=
EXTT4=
EXTT5=
EXTT6=
EXTT7=
EXTT8=
PLAYORDER=
